<mxfile host="app.diagrams.net" modified="2023-09-14T16:30:14.231Z" agent="Mozilla/5.0 (Windows NT 10.0; Win64; x64) AppleWebKit/537.36 (KHTML, like Gecko) Chrome/116.0.0.0 Safari/537.36 Edg/116.0.1938.81" version="21.7.5" etag="zUpo0L-8zn1jTkz98Ylo" type="github">
  <diagram name="Trang-1" id="5ZQhdUJRwtP_Jv4_O1NK">
    <mxGraphModel>
      <root>
        <mxCell id="0" />
        <mxCell id="1" parent="0" />
      </root>
    </mxGraphModel>
  </diagram>
</mxfile>
